<?xml version="1.0" encoding="UTF-8"?>
<!DOCTYPE svg PUBLIC "-//W3C//DTD SVG 1.1//EN" "http://www.w3.org/Graphics/SVG/1.1/DTD/svg11.dtd">
<!-- Creator: CorelDRAW 2019 (64-Bit Not for commercial use) -->
<svg xmlns="http://www.w3.org/2000/svg" xml:space="preserve" width="5.91245in" height="5.84816in" version="1.1" shape-rendering="geometricPrecision" text-rendering="geometricPrecision" image-rendering="optimizeQuality" fill-rule="evenodd" clip-rule="evenodd"
viewBox="0 0 1468.6 1452.63"
 xmlns:xlink="http://www.w3.org/1999/xlink"
 xmlns:xodm="http://www.corel.com/coreldraw/odm/2003">
 <g id="Layer_x0020_1">
  <metadata id="CorelCorpID_0Corel-Layer"/>
  <path fill="none" fill-rule="nonzero" stroke="red" stroke-width="0.75" stroke-linecap="round" stroke-linejoin="round" stroke-miterlimit="10" d="M58.07 222.8c0,-4.9 -3.95,-8.75 -8.85,-8.75 -4.9,0 -8.75,3.86 -8.75,8.75 0,4.89 3.86,8.85 8.75,8.85 4.89,0 8.85,-3.95 8.85,-8.85z"/>
  <path fill="none" fill-rule="nonzero" stroke="red" stroke-width="0.75" stroke-linecap="round" stroke-linejoin="round" stroke-miterlimit="10" d="M58.07 111.32c0,-4.9 -3.95,-8.75 -8.85,-8.75 -4.9,0 -8.75,3.86 -8.75,8.75 0,4.89 3.86,8.85 8.75,8.85 4.89,0 8.85,-3.95 8.85,-8.85z"/>
  <path fill="none" fill-rule="nonzero" stroke="red" stroke-width="0.75" stroke-linecap="round" stroke-linejoin="round" stroke-miterlimit="10" d="M517.69 222.8c0,-4.9 -3.95,-8.75 -8.85,-8.75 -4.9,0 -8.75,3.86 -8.75,8.75 0,4.89 3.86,8.85 8.75,8.85 4.89,0 8.85,-3.95 8.85,-8.85z"/>
  <path fill="none" fill-rule="nonzero" stroke="red" stroke-width="0.75" stroke-linecap="round" stroke-linejoin="round" stroke-miterlimit="10" d="M517.69 111.32c0,-4.9 -3.95,-8.75 -8.85,-8.75 -4.9,0 -8.75,3.86 -8.75,8.75 0,4.89 3.86,8.85 8.75,8.85 4.89,0 8.85,-3.95 8.85,-8.85z"/>
  <polyline fill="none" stroke="blue" stroke-width="0.75" stroke-miterlimit="2.61313" points="29.71,142.66 10.15,142.66 10.15,191.56 29.71,191.56 "/>
  <circle fill="none" stroke="red" stroke-width="0.75" stroke-miterlimit="2.61313" cx="64.92" cy="206.22" r="4.89"/>
  <circle fill="none" stroke="red" stroke-width="0.75" stroke-miterlimit="2.61313" cx="64.92" cy="167.11" r="4.89"/>
  <circle fill="none" stroke="red" stroke-width="0.75" stroke-miterlimit="2.61313" cx="64.92" cy="127.99" r="4.89"/>
  <rect fill="none" stroke="blue" stroke-width="0.75" stroke-miterlimit="2.61313" x="64.92" y="108.43" width="1369.08" height="117.35"/>
  <polyline id="path226" fill="none" stroke="red" stroke-width="0.75" stroke-miterlimit="2.61313" points="405.93,1422.92 361.92,1422.92 361.92,1452.26 312.05,1452.26 312.05,1422.92 238.7,1422.92 "/>
  <polyline id="path228" fill="none" stroke="red" stroke-width="0.75" stroke-miterlimit="2.61313" points="238.7,1148.13 312.05,1148.13 312.05,1118.79 361.92,1118.79 361.92,1148.13 405.93,1148.13 "/>
  <polyline id="path229" fill="none" stroke="red" stroke-width="0.75" stroke-miterlimit="2.61313" points="405.93,1148.13 405.93,1196.86 435.26,1196.86 435.26,1246.73 405.93,1246.73 405.93,1324.31 435.26,1324.31 435.26,1374.19 405.93,1374.19 405.93,1422.92 "/>
  <g id="_2116973930960">
   <polyline id="path165" fill="none" stroke="red" stroke-width="0.75" stroke-miterlimit="2.61313" points="29.71,29.71 220.16,29.71 220.16,0.37 416.72,0.37 416.72,29.71 636.02,29.71 636.02,0.37 832.58,0.37 832.58,29.71 1051.88,29.71 1051.88,0.37 1248.44,0.37 1248.44,29.71 1438.89,29.71 "/>
   <path fill="none" stroke="red" stroke-width="0.75" stroke-miterlimit="2.61313" d="M1438.89 29.71l0 274.79m-1409.18 0l0 -274.79"/>
   <polyline id="path165_0" fill="none" stroke="red" stroke-width="0.75" stroke-miterlimit="2.61313" points="29.71,304.5 220.16,304.5 220.16,333.84 416.72,333.84 416.72,304.5 636.02,304.5 636.02,333.84 832.58,333.84 832.58,304.5 1051.88,304.5 1051.88,333.84 1248.44,333.84 1248.44,304.5 1438.89,304.5 "/>
  </g>
  <polyline id="path175" fill="none" stroke="red" stroke-width="0.75" stroke-miterlimit="2.61313" points="220.65,770.46 416.23,770.46 416.23,738.67 220.65,738.67 220.65,770.46 "/>
  <polyline id="path176" fill="none" stroke="red" stroke-width="0.75" stroke-miterlimit="2.61313" points="636.51,770.46 832.09,770.46 832.09,738.67 636.51,738.67 636.51,770.46 "/>
  <polyline id="path177" fill="none" stroke="red" stroke-width="0.75" stroke-miterlimit="2.61313" points="1052.37,770.46 1247.95,770.46 1247.95,738.67 1052.37,738.67 1052.37,770.46 "/>
  <path id="path190" fill="none" stroke="red" stroke-width="0.75" stroke-miterlimit="2.61313" d="M1468.23 848.69l-219.79 0 0 29.34m-196.56 0l0 -29.34 -219.3 0 0 29.34m-196.56 0l0 -29.34 -219.3 0 0 29.34m-196.56 0l0 -29.34 -219.79 0"/>
  <polyline id="path231" fill="none" stroke="red" stroke-width="0.75" stroke-miterlimit="2.61313" points="1468.23,681.47 1468.23,755.79 1438.89,755.79 1438.89,803.71 1468.23,803.71 1468.23,848.69 "/>
  <polyline id="path233" fill="none" stroke="red" stroke-width="0.75" stroke-miterlimit="2.61313" points="0.37,848.69 0.37,749.92 29.71,749.92 29.71,702 0.37,702 0.37,681.47 "/>
  <path id="path178" fill="none" stroke="red" stroke-width="0.75" stroke-miterlimit="2.61313" d="M221.14 681.47l0 29.34 194.61 0 0 -29.34m221.25 0l0 29.34 194.61 0 0 -29.34m221.25 0l0 29.34 194.61 0 0 -29.34"/>
  <polyline id="path175_1" fill="none" stroke="red" stroke-width="0.75" stroke-miterlimit="2.61313" points="220.65,985.6 416.23,985.6 416.23,1017.38 220.65,1017.38 220.65,985.6 "/>
  <polyline id="path176_2" fill="none" stroke="red" stroke-width="0.75" stroke-miterlimit="2.61313" points="636.51,985.6 832.09,985.6 832.09,1017.38 636.51,1017.38 636.51,985.6 "/>
  <polyline id="path177_3" fill="none" stroke="red" stroke-width="0.75" stroke-miterlimit="2.61313" points="1052.37,985.6 1247.95,985.6 1247.95,1017.38 1052.37,1017.38 1052.37,985.6 "/>
  <polyline id="path190_4" fill="none" stroke="red" stroke-width="0.75" stroke-miterlimit="2.61313" points="1468.23,907.36 1248.44,907.36 1248.44,878.03 1051.88,878.03 1051.88,907.36 832.58,907.36 832.58,878.03 636.02,878.03 636.02,907.36 416.72,907.36 416.72,878.03 220.16,878.03 220.16,907.36 0.37,907.36 "/>
  <polyline id="path231_5" fill="none" stroke="red" stroke-width="0.75" stroke-miterlimit="2.61313" points="1468.23,1074.59 1468.23,1000.27 1438.89,1000.27 1438.89,952.35 1468.23,952.35 1468.23,907.36 "/>
  <polyline id="path233_6" fill="none" stroke="red" stroke-width="0.75" stroke-miterlimit="2.61313" points="0.37,907.36 0.37,1006.13 29.71,1006.13 29.71,1054.05 0.37,1054.05 0.37,1074.59 "/>
  <polyline id="path178_7" fill="none" stroke="red" stroke-width="0.75" stroke-miterlimit="2.61313" points="0.37,1074.59 221.14,1074.59 221.14,1045.25 415.74,1045.25 415.74,1074.59 637,1074.59 637,1045.25 831.6,1045.25 831.6,1074.59 1052.86,1074.59 1052.86,1045.25 1247.46,1045.25 1247.46,1074.59 1468.23,1074.59 "/>
  <g id="_2116973939728">
   <polyline id="path178_8" fill="none" stroke="red" stroke-width="0.75" stroke-miterlimit="2.61313" points="0.37,348 221.14,348 221.14,377.33 415.74,377.33 415.74,348 637,348 637,377.33 831.6,377.33 831.6,348 1052.86,348 1052.86,377.33 1247.46,377.33 1247.46,348 1468.23,348 "/>
   <polyline id="path221" fill="none" stroke="red" stroke-width="0.75" stroke-miterlimit="2.61313" points="1468.23,348 1468.23,427.04 1438.89,427.04 1438.89,474.96 1468.23,474.96 1468.23,554.5 1438.89,554.5 1438.89,602.42 1468.23,602.42 1468.23,681.47 "/>
   <polyline id="path178_9" fill="none" stroke="red" stroke-width="0.75" stroke-miterlimit="2.61313" points="0.37,681.47 221.14,681.47 221.14,652.13 415.74,652.13 415.74,681.47 637,681.47 637,652.13 831.6,652.13 831.6,681.47 1052.86,681.47 1052.86,652.13 1247.46,652.13 1247.46,681.47 1468.23,681.47 "/>
   <path fill="none" stroke="red" stroke-width="0.75" stroke-miterlimit="2.61313" d="M0.37 348l0 107.57 9.78 0c10.76,0 19.56,8.8 19.56,19.56l0 79.21c0,10.76 -8.8,19.56 -19.56,19.56l-9.78 0 0 107.57"/>
  </g>
  <polyline id="path202" fill="none" stroke="red" stroke-width="0.75" stroke-miterlimit="2.61313" points="71.48,1148.13 169.27,1148.13 169.27,1118.79 219.14,1118.79 219.14,1148.13 238.7,1148.13 "/>
  <polyline id="path202_10" fill="none" stroke="red" stroke-width="0.75" stroke-miterlimit="2.61313" points="71.48,1422.92 169.27,1422.92 169.27,1452.26 219.14,1452.26 219.14,1422.92 238.7,1422.92 "/>
  <line fill="none" stroke="red" stroke-width="0.75" stroke-miterlimit="2.61313" x1="238.7" y1="1148.13" x2="238.7" y2= "1422.92" />
  <path fill="none" stroke="red" stroke-width="0.75" stroke-miterlimit="2.61313" d="M71.48 1148.13l0 78.23 19.56 0 19.56 0c10.76,0 19.56,8.8 19.56,19.56l0 79.21c0,10.76 -8.8,19.56 -19.56,19.56l-19.56 0 -19.56 0 0 78.23"/>
 </g>
</svg>
